<?xml version="1.0" encoding="UTF-8" standalone="no"?>
<!-- Created with Inkscape (http://www.inkscape.org/) -->

<svg
   width="1200"
   height="300"
   viewBox="0 0 317.49999 79.374997"
   version="1.1"
   id="svg1"
   inkscape:version="1.3.2 (091e20ef0f, 2023-11-25)"
   sodipodi:docname="logo_mascotitas.svg"
   xmlns:inkscape="http://www.inkscape.org/namespaces/inkscape"
   xmlns:sodipodi="http://sodipodi.sourceforge.net/DTD/sodipodi-0.dtd"
   xmlns="http://www.w3.org/2000/svg"
   xmlns:svg="http://www.w3.org/2000/svg">
  <sodipodi:namedview
     id="namedview1"
     pagecolor="#ffffff"
     bordercolor="#000000"
     borderopacity="0.25"
     inkscape:showpageshadow="2"
     inkscape:pageopacity="0.0"
     inkscape:pagecheckerboard="0"
     inkscape:deskcolor="#d1d1d1"
     inkscape:document-units="px"
     inkscape:zoom="1.0444209"
     inkscape:cx="392.56203"
     inkscape:cy="347.08229"
     inkscape:window-width="1920"
     inkscape:window-height="1011"
     inkscape:window-x="1920"
     inkscape:window-y="32"
     inkscape:window-maximized="1"
     inkscape:current-layer="layer1" />
  <defs
     id="defs1" />
  <g
     inkscape:label="Capa 1"
     inkscape:groupmode="layer"
     id="layer1">
    <g
       id="g1"
       transform="translate(18.719729,-57.232875)"
       style="fill:#000000">
      <path
         d="M 4.6228739,58.824551 V 88.160886 H -18.719729 V 102.74652 H 4.6228739 v 29.33547 H 20.271364 V 102.74652 H 45.426947 V 88.160886 H 20.271364 V 58.824551 Z"
         style="fill:#000000;fill-opacity:1;stroke-width:8.52114;stroke-linecap:square;paint-order:stroke fill markers"
         id="path56-7-8"
         sodipodi:nodetypes="ccccccccccccc" />
      <path
         d="M 41.680221,105.27615 H 22.979649 v 19.21427 h 14.596625 v -13.8626 z"
         style="font-weight:900;font-size:39.7141px;line-height:0.8;font-family:Inter;-inkscape-font-specification:'Inter Heavy';letter-spacing:-3.50044px;fill:#000000;fill-opacity:1;stroke-width:9.24157;stroke-linecap:square;stroke-linejoin:round;paint-order:stroke fill markers"
         id="path51-4-8" />
      <path
         d="M 22.979649,85.787521 H 37.576274 V 58.978227 H 22.979649 Z"
         style="font-weight:900;font-size:39.7141px;line-height:0.8;font-family:Inter;-inkscape-font-specification:'Inter Heavy';letter-spacing:-3.50044px;fill:#000000;fill-opacity:1;stroke-width:11.9418;stroke-linecap:square;stroke-linejoin:round;paint-order:stroke fill markers"
         id="path50-5-4" />
      <path
         d="m 42.54026,85.792491 h 4.923583 v 19.483659 h -4.48779 l 11.508561,19.21427 H 71.917252 L 53.329236,94.666095 71.496853,70.72159 H 54.484614 Z"
         style="font-weight:900;font-size:39.7141px;line-height:0.8;font-family:Inter;-inkscape-font-specification:'Inter Heavy';letter-spacing:-3.50044px;fill:#000000;fill-opacity:1;stroke-width:9.24157;stroke-linecap:square;stroke-linejoin:round;paint-order:stroke fill markers"
         id="path49-2-3"
         sodipodi:nodetypes="cccccccccc" />
      <path
         d="m 91.865553,69.986608 c -4.900782,0 -9.32977,1.058734 -13.2854,3.176575 -3.938126,2.100323 -7.070995,5.206832 -9.398866,9.319982 -2.310369,4.095652 -3.465171,9.136886 -3.465171,15.122836 0,5.950949 1.154802,10.982769 3.465171,15.095919 2.327871,4.09567 5.46074,7.21157 9.398866,9.34693 3.95563,2.1178 8.384618,3.17655 13.2854,3.17655 4.865771,0 9.275897,-1.05024 13.231527,-3.15058 3.95562,-2.11784 7.09793,-5.22436 9.42579,-9.31998 2.32789,-4.11318 3.49212,-9.16288 3.49212,-15.148839 0,-5.98595 -1.16423,-11.027184 -3.49212,-15.122836 -2.32786,-4.11315 -5.47017,-7.219659 -9.42579,-9.319982 -3.95563,-2.117841 -8.365756,-3.176575 -13.231527,-3.176575 z m 0.313616,13.093966 c 1.145556,0.03481 2.208242,0.203846 3.078442,0.510825 1.016584,0.35864 1.706313,0.789379 2.636877,1.646966 0.925952,0.853362 1.500977,1.064561 2.745582,1.011077 0.88955,-0.03816 1.82697,-0.230672 3.7634,-0.77441 3.3957,-0.953498 4.37269,-1.187502 5.49502,-1.315078 1.62195,-0.184486 2.70622,0.54076 2.9322,1.96059 0.10928,0.68591 -0.0168,3.000504 -0.2405,4.397341 -0.66597,4.170083 -2.56152,6.404738 -6.7312,7.934703 -3.7866,1.389374 -5.71103,2.465812 -7.347851,4.111642 -0.80318,0.8076 -1.321601,1.52784 -1.828787,2.54164 -0.741153,1.48137 -1.096093,2.95967 -1.218871,5.06884 l -0.04328,0.72921 -0.903331,0.006 c -0.497134,0.004 -1.021623,-0.004 -1.165959,-0.0149 v 0.002 c -3.814457,-0.26891 -6.515521,-0.82544 -9.214162,-1.89806 -1.484041,-0.58989 -3.498841,-1.71287 -3.498841,-1.95 0,-0.0411 0.216954,-0.1802 0.481969,-0.30977 1.605568,-0.78441 2.637776,-2.2904 2.841786,-4.14435 0.06877,-0.6255 0.05778,-0.97165 -0.09716,-2.973587 -0.137089,-1.770895 -0.08427,-2.865017 0.223186,-4.592645 0.178231,-1.001455 0.05551,-1.044792 -0.30592,-0.10779 -0.378284,0.980938 -0.767263,2.862021 -1.042823,5.049597 -0.225359,1.789095 -0.366158,2.374255 -0.752293,3.119815 -0.598665,1.15587 -2.3258,2.33807 -4.040454,2.76482 -0.616354,0.1534 -1.154579,0.22478 -2.160681,0.28861 l -0.799433,0.051 -0.512754,0.38865 c -0.931216,0.70579 -1.750368,0.9964 -2.700369,0.95914 -0.461899,-0.0186 -0.539701,-0.0378 -0.766725,-0.19722 -0.138969,-0.0977 -0.316615,-0.29425 -0.395387,-0.43675 -0.212735,-0.38488 -0.187281,-0.80067 0.130834,-2.0972 0.672108,-2.73934 0.869712,-4.21543 0.972594,-7.260314 0.124244,-3.675302 0.139267,-3.697119 4.404095,-6.512818 2.516579,-1.661487 3.103546,-2.112853 4.777358,-3.673923 0.891319,-0.831283 1.383765,-1.228644 2.220325,-1.788392 0.79354,-0.530968 2.230485,-1.249624 3.15348,-1.577694 1.860683,-0.661374 4.000383,-0.974776 5.909645,-0.916806 z M 79.208347,108.08617 c 0.102314,0.007 0.235315,0.07 0.430983,0.18759 1.86471,1.12034 4.619135,2.21921 7.325728,2.92357 2.623191,0.68269 5.876563,1.1344 8.175186,1.13519 0.771311,2.4e-4 0.965788,0.0443 1.069759,0.23856 0.13787,0.25769 -0.147477,3.78041 -0.329008,4.06259 -0.08225,0.12864 -0.108495,0.1305 -1.030317,0.12305 -0.520441,-0.006 -1.27396,-0.0303 -1.674863,-0.0568 -4.77256,-0.31454 -9.087906,-1.38897 -12.536954,-3.12173 -0.941638,-0.47305 -2.006933,-1.10662 -2.429083,-1.444 l -0.211642,-0.16829 0.03848,-0.41366 c 0.08993,-0.96711 0.648024,-2.98366 0.92161,-3.33147 0.07599,-0.0966 0.147811,-0.14241 0.250121,-0.13478 z m 16.139692,9.76252 c 0.292526,-0.0525 0.675721,0.11914 0.887939,0.39732 0.307411,0.40304 0.452951,0.91895 0.483891,1.72199 0.01676,0.4344 1.1e-4,0.88061 -0.04136,1.11306 -0.08789,0.49181 -0.381594,1.07839 -0.645509,1.2891 -0.245494,0.19603 -0.601523,0.25854 -0.84561,0.14819 -0.872884,-0.39448 -1.247285,-2.34302 -0.720549,-3.7509 0.160229,-0.42825 0.578704,-0.86437 0.881204,-0.91873 z"
         style="font-weight:900;font-size:39.7141px;line-height:0.8;font-family:Inter;-inkscape-font-specification:'Inter Heavy';letter-spacing:-3.50044px;fill:#000000;fill-opacity:1;stroke-width:9.24157;stroke-linecap:square;stroke-linejoin:round;paint-order:stroke fill markers"
         id="path57-5-1" />
      <path
         d="m 221.40443,70.111672 -17.17866,52.043958 h 15.24791 l 3.00725,-9.96165 h 17.16134 l 3.00727,9.96165 h 15.24693 L 240.7178,70.111672 Z m 9.45372,14.332084 h 0.40596 l 5.18622,17.178644 h -10.7784 z"
         style="font-weight:900;font-size:38.4403px;line-height:0.8;font-family:Inter;-inkscape-font-specification:'Inter Heavy';letter-spacing:-1.74326px;fill:#000000;fill-opacity:1;stroke-width:29.817;stroke-linecap:square;stroke-linejoin:round;paint-order:stroke fill markers"
         id="path38-4-4" />
      <path
         d="M 168.42558,70.112081 V 81.49655 h 15.65387 v 40.65951 h 13.9261 V 81.49655 h 15.65388 V 70.112081 Z"
         style="font-weight:900;font-size:38.4403px;line-height:0.8;font-family:Inter;-inkscape-font-specification:'Inter Heavy';letter-spacing:-1.74326px;fill:#000000;fill-opacity:1;stroke-width:29.817;stroke-linecap:square;stroke-linejoin:round;paint-order:stroke fill markers"
         id="path25-7-9" />
      <path
         d="m 152.25608,70.112081 v 52.043979 h 14.12906 V 70.112081 Z"
         style="font-weight:900;font-size:38.4403px;line-height:0.8;font-family:Inter;-inkscape-font-specification:'Inter Heavy';letter-spacing:-1.74326px;fill:#000000;fill-opacity:1;stroke-width:29.817;stroke-linecap:square;stroke-linejoin:round;paint-order:stroke fill markers"
         id="path24-4-2" />
      <path
         d="m 277.53517,69.400202 c -4.11678,0 -7.76754,0.69451 -10.95253,2.083717 -3.16803,1.389188 -5.65017,3.329785 -7.44597,5.820176 -1.77884,2.473464 -2.65958,5.361266 -2.64264,8.664859 -0.0168,4.065939 1.2956,7.276821 3.93847,9.631663 2.65979,2.337921 6.29442,4.006799 10.90249,5.006333 l 5.18429,1.11786 c 1.93132,0.42353 3.4643,0.88052 4.59938,1.37182 1.13508,0.47436 1.94838,1.01687 2.43967,1.62677 0.50826,0.59294 0.77095,1.28747 0.78789,2.08371 -0.0168,0.84707 -0.28868,1.60098 -0.81385,2.26169 -0.52518,0.66074 -1.29621,1.17712 -2.3127,1.54983 -1.01649,0.37271 -2.27868,0.5599 -3.78648,0.5599 -1.79577,0 -3.34588,-0.27982 -4.65037,-0.83888 -1.28756,-0.55908 -2.28704,-1.38044 -2.99859,-2.4647 -0.71154,-1.08426 -1.10916,-2.42296 -1.19387,-4.01543 h -13.41815 c 0.0167,4.35395 0.94899,7.92822 2.79561,10.72357 1.86355,2.77839 4.47253,4.83678 7.82693,6.17516 3.37136,1.33837 7.31903,2.00771 11.84238,2.00771 4.40478,0 8.17431,-0.61804 11.30848,-1.85476 3.15112,-1.23672 5.57384,-3.04144 7.268,-5.41324 1.69413,-2.3718 2.54971,-5.26865 2.56665,-8.69085 -0.0167,-1.98214 -0.33902,-3.81203 -0.96585,-5.48925 -0.60989,-1.677176 -1.56711,-3.185009 -2.87161,-4.523374 -1.30449,-1.355324 -2.9814,-2.531994 -5.03134,-3.531544 -2.0499,-0.999537 -4.51495,-1.804775 -7.39499,-2.414658 l -4.26941,-0.914867 c -1.23675,-0.25411 -2.30466,-0.542008 -3.20255,-0.863898 -0.89789,-0.321873 -1.63468,-0.677198 -2.2107,-1.06687 -0.576,-0.406594 -0.99976,-0.855502 -1.27083,-1.346818 -0.25413,-0.508256 -0.36385,-1.075916 -0.32997,-1.702758 0.0168,-0.762366 0.24546,-1.440736 0.68593,-2.033677 0.44048,-0.592941 1.11887,-1.058045 2.0337,-1.396876 0.93179,-0.355754 2.12556,-0.533892 3.58253,-0.533892 2.2871,0 3.99016,0.474097 5.10829,1.422828 1.13507,0.948694 1.77023,2.270288 1.90575,3.964445 h 13.51916 c -0.0168,-3.405236 -0.86444,-6.37856 -2.54164,-8.919786 -1.66028,-2.558173 -4.02362,-4.54006 -7.09003,-5.946227 -3.06639,-1.406147 -6.70006,-2.109686 -10.90153,-2.109686 z"
         style="font-weight:900;font-size:38.4403px;line-height:0.8;font-family:Inter;-inkscape-font-specification:'Inter Heavy';letter-spacing:-1.74326px;fill:#000000;fill-opacity:1;stroke-width:29.817;stroke-linecap:square;stroke-linejoin:round;paint-order:stroke fill markers"
         id="path23-4-0" />
      <path
         d="m 106.47386,70.112081 c 0.2719,0.133664 0.55865,0.232812 0.82636,0.376157 3.95566,2.100341 7.09696,5.207776 9.42486,9.320969 0.30229,0.531824 0.53062,1.123629 0.79366,1.687361 h 3.11691 v 40.659492 h 13.92611 V 81.49655 h 15.65388 V 70.112081 Z"
         style="font-weight:900;font-size:38.4403px;line-height:0.8;font-family:Inter;-inkscape-font-specification:'Inter Heavy';letter-spacing:-1.74326px;fill:#000000;fill-opacity:1;stroke-width:29.817;stroke-linecap:square;stroke-linejoin:round;paint-order:stroke fill markers"
         id="path22-3-6" />
      <path
         style="color:#000000;fill:#000000;stroke-width:1.86161;stroke-linecap:square;stroke-linejoin:bevel;-inkscape-stroke:none;paint-order:stroke fill markers"
         d="m 110.13957,124.03169 -2.30156,1.55619 c -3.50055,2.36681 -8.860962,3.76632 -14.358381,3.86865 -5.497416,0.10238 -11.106981,-1.08247 -15.056486,-3.28327 l -2.425183,-1.35257 -2.701514,4.85035 2.425182,1.35259 c 5.110038,2.84748 11.529287,4.10284 17.859809,3.985 6.330522,-0.11784 12.600183,-1.59698 17.368953,-4.82127 l 2.29792,-1.5562 z"
         id="path58-8" />
    </g>
  </g>
</svg>
